<svg width="50" height="50" viewBox="0 0 50 50" fill="none" xmlns="http://www.w3.org/2000/svg">
<path d="M16.18 20.4867L15 19.31L12.6433 21.6667L13.82 22.8467L16.18 20.4867ZM25 31.6667L23.82 32.8467L25 34.0233L26.18 32.8467L25 31.6667ZM36.18 22.8467L37.3567 21.6667L35 19.31L33.82 20.4867L36.18 22.8467ZM13.82 22.8467L23.82 32.8467L26.18 30.4867L16.18 20.4867L13.82 22.8467ZM26.18 32.8467L36.18 22.8467L33.82 20.4867L23.82 30.4867L26.18 32.8467ZM46.6667 25C46.6667 27.8453 46.1062 30.6628 45.0174 33.2915C43.9285 35.9202 42.3326 38.3087 40.3206 40.3206C38.3087 42.3326 35.9202 43.9285 33.2915 45.0174C30.6628 46.1062 27.8453 46.6667 25 46.6667V50C31.6304 50 37.9893 47.3661 42.6777 42.6777C47.3661 37.9893 50 31.6304 50 25H46.6667ZM25 3.33333C27.8453 3.33333 30.6628 3.89376 33.2915 4.98261C35.9202 6.07146 38.3087 7.66742 40.3206 9.67935C42.3326 11.6913 43.9285 14.0798 45.0174 16.7085C46.1062 19.3372 46.6667 22.1547 46.6667 25H50C50 18.3696 47.3661 12.0107 42.6777 7.32233C37.9893 2.63392 31.6304 0 25 0V3.33333ZM3.33333 25C3.33333 19.2536 5.61606 13.7426 9.67935 9.67935C13.7426 5.61606 19.2536 3.33333 25 3.33333V0C18.3696 0 12.0107 2.63392 7.32233 7.32233C2.63392 12.0107 0 18.3696 0 25H3.33333ZM0 25C0 31.6304 2.63392 37.9893 7.32233 42.6777C12.0107 47.3661 18.3696 50 25 50V46.6667C19.2536 46.6667 13.7426 44.3839 9.67935 40.3206C5.61606 36.2574 3.33333 30.7464 3.33333 25H0Z" fill="#346DFF"/>
</svg>
