<svg viewBox="0 0 100 100" fill="none" xmlns="http://www.w3.org/2000/svg">
<circle cx="50" cy="50" r="47" stroke="#346DFF" stroke-width="6"/>
<path d="M79.1272 67.0155C76.8368 64.7079 71.2896 61.3403 68.5981 59.9831C65.0932 58.2178 64.8048 58.0736 62.0499 60.1201C60.2124 61.486 58.9907 62.7061 56.8402 62.2475C54.6896 61.7888 50.0164 59.2029 45.9245 55.1242C41.8326 51.0455 39.0965 46.2371 38.6364 44.0939C38.1762 41.9507 39.4167 40.7436 40.7696 38.9018C42.6764 36.3058 42.5321 35.8731 40.9023 32.3685C39.6316 29.6426 36.1656 24.1477 33.8492 21.8689C31.3713 19.4214 31.3713 19.8541 29.7746 20.5175C28.4747 21.0644 27.2277 21.7292 26.049 22.5035C23.7413 24.0366 22.4605 25.3101 21.5648 27.224C20.6691 29.1378 20.2667 33.6247 24.8923 42.0272C29.5179 50.4297 32.7631 54.7262 39.4801 61.4239C46.1971 68.1217 51.3621 71.723 58.9128 75.9574C68.2534 81.1885 71.8362 80.1688 73.756 79.2746C75.6757 78.3804 76.9551 77.1112 78.4912 74.8036C79.2675 73.6271 79.9338 72.3815 80.4816 71.0827C81.1465 69.4919 81.5792 69.4919 79.1272 67.0155Z" stroke="#346DFF" stroke-width="4.61595" stroke-miterlimit="10"/>
</svg>
