<svg width="50" height="50" viewBox="0 0 50 50" fill="none" xmlns="http://www.w3.org/2000/svg">
<path d="M17.1533 20.4867L15.9767 21.6667L18.3333 24.0233L19.5133 22.8467L17.1533 20.4867ZM25 15L26.18 13.82L25 12.6433L23.82 13.82L25 15ZM30.4867 22.8467L31.6667 24.0233L34.0233 21.6667L32.8467 20.4867L30.4867 22.8467ZM17.1533 30.4867L15.9767 31.6667L18.3333 34.0233L19.5133 32.8467L17.1533 30.4867ZM25 25L26.18 23.82L25 22.6433L23.82 23.82L25 25ZM30.4867 32.8467L31.6667 34.0233L34.0233 31.6667L32.8467 30.4867L30.4867 32.8467ZM19.5133 22.8467L26.18 16.18L23.82 13.82L17.1533 20.4867L19.5133 22.8467ZM23.82 16.18L30.4867 22.8467L32.8467 20.4867L26.18 13.82L23.82 16.18ZM19.5133 32.8467L26.18 26.18L23.82 23.82L17.1533 30.4867L19.5133 32.8467ZM23.82 26.18L30.4867 32.8467L32.8467 30.4867L26.18 23.82L23.82 26.18ZM0 25C0 31.6304 2.63392 37.9893 7.32233 42.6777C12.0107 47.3661 18.3696 50 25 50V46.6667C19.2536 46.6667 13.7426 44.3839 9.67935 40.3206C5.61606 36.2574 3.33333 30.7464 3.33333 25H0ZM25 0C18.3696 0 12.0107 2.63392 7.32233 7.32233C2.63392 12.0107 0 18.3696 0 25H3.33333C3.33333 19.2536 5.61606 13.7426 9.67935 9.67935C13.7426 5.61606 19.2536 3.33333 25 3.33333V0ZM50 25C50 18.3696 47.3661 12.0107 42.6777 7.32233C37.9893 2.63392 31.6304 0 25 0V3.33333C27.8453 3.33333 30.6628 3.89376 33.2915 4.98261C35.9202 6.07146 38.3087 7.66742 40.3206 9.67935C42.3326 11.6913 43.9285 14.0798 45.0174 16.7085C46.1062 19.3372 46.6667 22.1547 46.6667 25H50ZM46.6667 25C46.6667 27.8453 46.1062 30.6628 45.0174 33.2915C43.9285 35.9202 42.3326 38.3087 40.3206 40.3206C38.3087 42.3326 35.9202 43.9285 33.2915 45.0174C30.6628 46.1062 27.8453 46.6667 25 46.6667V50C31.6304 50 37.9893 47.3661 42.6777 42.6777C47.3661 37.9893 50 31.6304 50 25H46.6667Z" fill="#346DFF"/>
</svg>
