<svg viewBox="0 0 100 100" fill="none" xmlns="http://www.w3.org/2000/svg">
<circle cx="50" cy="50" r="47" stroke="#346DFF" stroke-width="6"/>
<path d="M73.6427 28.3609C68.6606 22.8922 61.297 20 52.3457 20C44.4228 20 36.7035 23.0937 30.6246 28.7125C24.5457 34.3312 20.8173 41.8125 20.1182 49.7797C19.4114 57.8531 21.8908 65.45 27.0997 71.1703C32.2837 76.8641 39.5386 80 47.5267 80C52.5787 80 55.8551 79.6313 60.8061 77.5391L63.0975 76.5703L61.1712 71.9609L58.8798 72.9266C54.662 74.7078 52.0785 74.9969 47.5267 74.9969C40.9492 74.9969 34.9977 72.4375 30.766 67.7906C26.5094 63.1156 24.4867 56.875 25.0708 50.2156C26.2888 36.3094 38.5242 24.9969 52.3457 24.9969C59.8647 24.9969 65.9622 27.3266 69.9764 31.7359C73.7996 35.9344 75.5069 41.7234 74.915 48.4781C74.4039 54.3141 72.156 57.1875 70.3602 58.5719C68.6513 59.8906 66.9424 60.1625 66.0103 59.9953C63.2637 59.5062 61.8361 56.7984 62.1903 52.7625L63.7329 35.7125L58.7757 35.2703L58.465 38.7531C57.3061 37.5601 55.9207 36.6133 54.391 35.9692C52.8613 35.325 51.2186 34.9965 49.5603 35.0031C45.8629 35.0031 42.3303 36.5766 39.6178 39.4359C37.0126 42.175 35.3876 45.85 35.0428 49.7828C34.6622 54.1375 35.936 58.2734 38.5397 61.1328C39.66 62.3656 41.0257 63.3474 42.5482 64.0142C44.0706 64.681 45.7156 65.018 47.376 65.0031C49.4806 65.0264 51.5649 64.587 53.483 63.7155C55.4011 62.844 57.1067 61.5615 58.4805 59.9578C59.1341 61.2472 60.0756 62.367 61.2313 63.2293C62.387 64.0916 63.7255 64.673 65.1419 64.9281C67.7658 65.3969 70.848 64.5078 73.3879 62.5516C78.078 58.9375 79.5025 53.1469 79.8723 48.9266C80.5745 40.8484 78.3654 33.5516 73.6427 28.3609V28.3609ZM54.0157 57.4234C52.2073 59.1056 49.8283 60.0295 47.3652 60.0063C46.3941 60.0232 45.4306 59.8316 44.539 59.4441C43.6474 59.0566 42.8483 58.4823 42.1951 57.7594C40.5313 55.9312 39.725 53.1859 39.9845 50.225C40.4862 44.4938 44.69 40.0062 49.5556 40.0062C50.6051 40.002 51.6438 40.2199 52.6041 40.6458C53.5644 41.0716 54.4248 41.6959 55.1296 42.4781C56.8182 44.3328 57.6463 46.9891 57.4024 49.7797C57.1258 52.9484 55.9529 55.5828 54.0157 57.4172V57.4234Z" fill="#346DFF"/>
</svg>
