<svg width="48" height="54" viewBox="0 0 48 54" fill="none" xmlns="http://www.w3.org/2000/svg">
<path d="M36.8333 5.57143H46V48.4286C46 49.3758 45.6137 50.2842 44.9261 50.954C44.2384 51.6237 43.3058 52 42.3333 52H5.66667C4.69421 52 3.76158 51.6237 3.07394 50.954C2.38631 50.2842 2 49.3758 2 48.4286V5.57143H11.1667M14.8333 30.5714L22.1667 37.7143L35 23.4286M13 2H35V9.14286C35 10.0901 34.6137 10.9985 33.9261 11.6682C33.2384 12.338 32.3058 12.7143 31.3333 12.7143H16.6667C15.6942 12.7143 14.7616 12.338 14.0739 11.6682C13.3863 10.9985 13 10.0901 13 9.14286V2Z" stroke="#346DFF" stroke-width="3"/>
</svg>
