<svg xmlns="http://www.w3.org/2000/svg" width="60" height="60" viewBox="0 0 88 88" fill="none">
<path d="M84.8333 43.9248C84.8333 66.5685 66.4769 84.9248 43.8333 84.9248C21.1896 84.9248 2.83325 66.5685 2.83325 43.9248C2.83325 21.2811 21.1896 2.9248 43.8333 2.9248C66.4769 2.9248 84.8333 21.2811 84.8333 43.9248Z" stroke="#346DFF" stroke-width="5.5"/>
<path d="M67.7176 57.8774C65.8394 55.9852 61.2907 53.2237 59.0837 52.1109C56.2097 50.6633 55.9731 50.5451 53.7141 52.2232C52.2074 53.3432 51.2056 54.3437 49.4422 53.9676C47.6787 53.5915 43.8467 51.4711 40.4913 48.1266C37.1359 44.782 34.8923 40.8391 34.515 39.0817C34.1377 37.3243 35.1549 36.3344 36.2643 34.8242C37.8278 32.6954 37.7096 32.3407 36.3731 29.4668C35.3311 27.2316 32.489 22.7258 30.5896 20.8572C28.5577 18.8503 28.5577 19.2051 27.2484 19.7491C26.1825 20.1975 25.1599 20.7426 24.1934 21.3776C22.3011 22.6347 21.2508 23.679 20.5163 25.2484C19.7819 26.8177 19.4519 30.4969 23.2449 37.387C27.0379 44.2771 29.699 47.8001 35.2069 53.2923C40.7149 58.7845 44.9502 61.7376 51.1417 65.2098C58.801 69.4992 61.7389 68.6631 63.3131 67.9299C64.8873 67.1966 65.9364 66.1559 67.196 64.2637C67.8326 63.2989 68.379 62.2775 68.8281 61.2125C69.3734 59.908 69.7282 59.908 67.7176 57.8774Z" stroke="#346DFF" stroke-width="4" stroke-miterlimit="10"/>
</svg>