<svg viewBox="0 0 100 100" fill="none" xmlns="http://www.w3.org/2000/svg">
<circle cx="50" cy="50" r="47" stroke="#346DFF" stroke-width="6"/>
<path fill-rule="evenodd" clip-rule="evenodd" d="M71.2584 28.7189C68.4848 25.944 65.1898 23.7451 61.563 22.2487C57.9362 20.7524 54.0492 19.9882 50.1258 20.0001C33.6607 20.0001 20.2571 33.3367 20.2504 49.7322C20.2432 54.9529 21.6193 60.0823 24.2388 64.5982L20 80L35.837 75.8656C40.2208 78.2405 45.1281 79.4834 50.1138 79.4817H50.1258C66.5897 79.4817 79.9919 66.1438 79.9999 49.7496C80.0099 45.8397 79.2422 41.9668 77.7415 38.3563C76.2407 34.7458 74.037 31.4698 71.2584 28.7189ZM50.1258 74.4634H50.1151C45.6706 74.4647 41.3068 73.2753 37.4777 71.0188L36.571 70.4831L27.1732 72.9366L29.6817 63.8174L29.0911 62.88C26.6059 58.9454 25.2892 54.3859 25.2942 49.7322C25.2942 36.1077 36.4384 25.0224 50.1352 25.0224C56.7057 25.0107 63.0118 27.6093 67.6666 32.2467C72.3213 36.8841 74.9434 43.1805 74.9562 49.751C74.9508 63.3768 63.812 74.4634 50.1258 74.4634ZM63.745 55.9559C62.999 55.5835 59.3254 53.7862 58.645 53.5385C57.9647 53.2907 57.4624 53.1661 56.9656 53.9108C56.4687 54.6554 55.037 56.3215 54.6017 56.8237C54.1665 57.3259 53.7312 57.3809 52.9852 57.0085C52.2392 56.6362 49.8325 55.8527 46.9812 53.3215C44.762 51.3514 43.2647 48.9193 42.8294 48.176C42.3942 47.4327 42.7826 47.0295 43.1562 46.6599C43.4924 46.3264 43.9022 45.792 44.2759 45.3581C44.6495 44.9242 44.7741 44.6135 45.0218 44.1179C45.2696 43.6224 45.1464 43.1885 44.9602 42.8175C44.7741 42.4465 43.2808 38.7889 42.6593 37.301C42.0526 35.8519 41.4379 36.0488 40.9799 36.026C40.5446 36.0046 40.0424 35.9992 39.5482 35.9992C39.1704 36.009 38.7987 36.0967 38.4562 36.2566C38.1138 36.4165 37.8081 36.6453 37.558 36.9287C36.8736 37.6733 34.9451 39.4733 34.9451 43.1269C34.9451 46.7804 37.6236 50.3161 37.9933 50.8117C38.3629 51.3072 43.2567 58.8112 50.7446 62.0295C52.135 62.625 53.5557 63.1471 55.0008 63.5938C56.7888 64.159 58.416 64.0799 59.7017 63.8884C61.1361 63.6755 64.1214 62.0911 64.7414 60.3554C65.3615 58.6197 65.3629 57.1331 65.1767 56.8237C64.9906 56.5143 64.4923 56.3268 63.745 55.9559Z" fill="#346DFF"/>
</svg>
