<svg width="44" height="44" viewBox="0 0 44 44" fill="none" xmlns="http://www.w3.org/2000/svg">
<path fill-rule="evenodd" clip-rule="evenodd" d="M0.333344 0.333374H13.6667V3.66671H6.02334L16.5133 14.1534L14.1533 16.5134L3.66668 6.02337V13.6667H0.333344V0.333374ZM37.9767 3.66671H30.3333V0.333374H43.6667V13.6667H40.3333V6.02337L29.8467 16.5134L27.4867 14.1534L37.9767 3.66671ZM16.51 29.8467L6.02668 40.3334H13.6667V43.6667H0.333344V30.3334H3.66668V37.9767L14.1533 27.4867L16.5133 29.8467H16.51ZM29.8433 27.4867L40.3333 37.9767V30.3334H43.6667V43.6667H30.3333V40.3334H37.9767L27.4867 29.8467L29.8467 27.4867H29.8433Z" fill="#346DFF"/>
</svg>
