<svg width="60" height="60" viewBox="0 0 60 60" fill="none" xmlns="http://www.w3.org/2000/svg">
<path d="M53.6427 8.36094C48.6606 2.89219 41.297 0 32.3457 0C24.4228 0 16.7035 3.09375 10.6246 8.7125C4.54573 14.3312 0.817315 21.8125 0.118237 29.7797C-0.588608 37.8531 1.89079 45.45 7.09969 51.1703C12.2837 56.8641 19.5386 60 27.5267 60C32.5787 60 35.8551 59.6312 40.8061 57.5391L43.0975 56.5703L41.1712 51.9609L38.8798 52.9266C34.662 54.7078 32.0785 54.9969 27.5267 54.9969C20.9492 54.9969 14.9977 52.4375 10.766 47.7906C6.50936 43.1156 4.4867 36.875 5.07081 30.2156C6.28876 16.3094 18.5242 4.99687 32.3457 4.99687C39.8647 4.99687 45.9622 7.32656 49.9764 11.7359C53.7996 15.9344 55.5069 21.7234 54.915 28.4781C54.4039 34.3141 52.156 37.1875 50.3602 38.5719C48.6513 39.8906 46.9424 40.1625 46.0103 39.9953C43.2637 39.5062 41.8361 36.7984 42.1903 32.7625L43.7329 15.7125L38.7757 15.2703L38.465 18.7531C37.3061 17.5601 35.9207 16.6133 34.391 15.9692C32.8614 15.325 31.2186 14.9965 29.5603 15.0031C25.8629 15.0031 22.3303 16.5766 19.6178 19.4359C17.0126 22.175 15.3876 25.85 15.0428 29.7828C14.6622 34.1375 15.936 38.2734 18.5397 41.1328C19.66 42.3656 21.0257 43.3474 22.5482 44.0142C24.0706 44.681 25.7156 45.018 27.376 45.0031C29.4806 45.0264 31.5649 44.587 33.483 43.7155C35.4011 42.844 37.1067 41.5616 38.4805 39.9578C39.1341 41.2472 40.0756 42.367 41.2313 43.2293C42.387 44.0916 43.7255 44.673 45.1419 44.9281C47.7658 45.3969 50.848 44.5078 53.3879 42.5516C58.078 38.9375 59.5025 33.1469 59.8723 28.9266C60.5745 20.8484 58.3654 13.5516 53.6427 8.36094ZM34.0157 37.4234C32.2073 39.1056 29.8283 40.0295 27.3652 40.0063C26.3941 40.0232 25.4306 39.8316 24.539 39.4441C23.6474 39.0566 22.8483 38.4823 22.1951 37.7594C20.5313 35.9312 19.725 33.1859 19.9845 30.225C20.4862 24.4937 24.69 20.0062 29.5556 20.0062C30.6051 20.002 31.6438 20.2199 32.6041 20.6458C33.5644 21.0716 34.4248 21.6959 35.1296 22.4781C36.8182 24.3328 37.6463 26.9891 37.4024 29.7797C37.1258 32.9484 35.9529 35.5828 34.0157 37.4172V37.4234Z" fill="#346DFF"/>
</svg>
