<svg width="50" height="50" viewBox="0 0 50 50" fill="none" xmlns="http://www.w3.org/2000/svg">
<path d="M10 43.1338V44.7928H13.3333V43.1338H10ZM36.6667 43.1338V44.7928H40V43.1338H36.6667ZM13.3333 43.1338V41.4748H10V43.1338H13.3333ZM21.6667 33.1799H28.3333V29.8619H21.6667V33.1799ZM36.6667 41.4748V43.1338H40V41.4748H36.6667ZM28.3333 33.1799C30.5435 33.1799 32.6631 34.0538 34.2259 35.6094C35.7887 37.165 36.6667 39.2749 36.6667 41.4748H40C40 38.3949 38.7708 35.4411 36.5829 33.2632C34.395 31.0854 31.4275 29.8619 28.3333 29.8619V33.1799ZM13.3333 41.4748C13.3333 39.2749 14.2113 37.165 15.7741 35.6094C17.3369 34.0538 19.4565 33.1799 21.6667 33.1799V29.8619C18.5725 29.8619 15.605 31.0854 13.4171 33.2632C11.2292 35.4411 10 38.3949 10 41.4748H13.3333ZM25 9.95396C22.7899 9.95396 20.6702 10.8279 19.1074 12.3835C17.5446 13.9391 16.6667 16.049 16.6667 18.2489H20C20 16.9289 20.5268 15.663 21.4645 14.7297C22.4021 13.7963 23.6739 13.2719 25 13.2719V9.95396ZM33.3333 18.2489C33.3333 16.049 32.4554 13.9391 30.8926 12.3835C29.3298 10.8279 27.2101 9.95396 25 9.95396V13.2719C26.3261 13.2719 27.5979 13.7963 28.5355 14.7297C29.4732 15.663 30 16.9289 30 18.2489H33.3333ZM25 26.5439C27.2101 26.5439 29.3298 25.67 30.8926 24.1144C32.4554 22.5587 33.3333 20.4489 33.3333 18.2489H30C30 19.5689 29.4732 20.8348 28.5355 21.7682C27.5979 22.7015 26.3261 23.2259 25 23.2259V26.5439ZM25 23.2259C23.6739 23.2259 22.4021 22.7015 21.4645 21.7682C20.5268 20.8348 20 19.5689 20 18.2489H16.6667C16.6667 20.4489 17.5446 22.5587 19.1074 24.1144C20.6702 25.67 22.7899 26.5439 25 26.5439V23.2259ZM25 46.4518C19.2536 46.4518 13.7426 44.1796 9.67935 40.135C5.61606 36.0904 3.33333 30.6048 3.33333 24.8849H0C0 31.4848 2.63392 37.8144 7.32233 42.4812C12.0107 47.148 18.3696 49.7698 25 49.7698V46.4518ZM46.6667 24.8849C46.6667 27.7171 46.1062 30.5216 45.0174 33.1382C43.9285 35.7548 42.3326 38.1323 40.3206 40.135C38.3087 42.1377 35.9202 43.7263 33.2915 44.8101C30.6628 45.894 27.8453 46.4518 25 46.4518V49.7698C31.6304 49.7698 37.9893 47.148 42.6777 42.4812C47.3661 37.8144 50 31.4848 50 24.8849H46.6667ZM25 3.31799C27.8453 3.31799 30.6628 3.87583 33.2915 4.95967C35.9202 6.04351 38.3087 7.63212 40.3206 9.63479C42.3326 11.6375 43.9285 14.015 45.0174 16.6316C46.1062 19.2482 46.6667 22.0527 46.6667 24.8849H50C50 18.285 47.3661 11.9554 42.6777 7.28862C37.9893 2.62179 31.6304 0 25 0V3.31799ZM25 0C18.3696 0 12.0107 2.62179 7.32233 7.28862C2.63392 11.9554 0 18.285 0 24.8849H3.33333C3.33333 19.165 5.61606 13.6794 9.67935 9.63479C13.7426 5.59021 19.2536 3.31799 25 3.31799V0Z" fill="#346DFF"/>
</svg>
