<svg width="73" height="56" viewBox="0 0 73 56" fill="none" xmlns="http://www.w3.org/2000/svg">
<path d="M58.5015 14.25L56.1072 14.084L56.1072 14.0844L58.5015 14.25ZM38.7015 14.25L41.0959 14.0873L41.0959 14.087L38.7015 14.25ZM27.0705 50.4078L29.4045 50.9666L29.4047 50.9659L27.0705 50.4078ZM70.134 50.4078L67.7978 50.9576L67.7981 50.959L70.134 50.4078ZM28.2015 17.0531L25.8072 16.8875L25.8072 16.8875L28.2015 17.0531ZM12.3015 17.0531L9.90698 17.2157L9.90699 17.2159L12.3015 17.0531ZM28.0677 37.9785C29.264 38.5494 30.6965 38.0425 31.2674 36.8462C31.8383 35.65 31.3314 34.2175 30.1352 33.6465L28.0677 37.9785ZM3.05397 45.9297L0.719857 45.3712L0.719097 45.3744L3.05397 45.9297ZM21.3015 50.4C22.627 50.4 23.7015 49.3255 23.7015 48C23.7015 46.6745 22.627 45.6 21.3015 45.6V50.4ZM56.1072 14.0844C55.726 19.5957 51.898 23.1 48.6015 23.1V27.9C55.1749 27.9 60.3979 21.6136 60.8958 14.4156L56.1072 14.0844ZM48.6015 23.1C45.3027 23.1 41.4703 19.5949 41.0959 14.0873L36.307 14.4127C36.7967 21.6176 42.0302 27.9 48.6015 27.9V23.1ZM41.0959 14.087C40.9105 11.3627 41.7264 9.20758 43.0371 7.75174C44.3471 6.29677 46.2741 5.4 48.6015 5.4V0.6C44.9843 0.6 41.7363 2.02276 39.4699 4.54005C37.2043 7.05648 36.0425 10.5264 36.307 14.413L41.0959 14.087ZM48.6015 5.4C53.0551 5.4 56.4681 8.8791 56.1072 14.084L60.8957 14.416C61.4349 6.63965 56.0368 0.6 48.6015 0.6V5.4ZM48.6015 33.1C38.1248 33.1 27.4339 38.5667 24.7363 49.8497L29.4047 50.9659C31.4171 42.5489 39.5271 37.9 48.6015 37.9V33.1ZM24.7364 49.849C24.1725 52.2042 25.5533 55.4 28.8285 55.4V50.6C28.9193 50.6 29.0368 50.6256 29.1499 50.6897C29.2573 50.7505 29.3231 50.8241 29.358 50.8775C29.4219 50.9749 29.394 51.0105 29.4045 50.9666L24.7364 49.849ZM28.8285 55.4H68.376V50.6H28.8285V55.4ZM68.376 55.4C71.6586 55.4 73.0222 52.1973 72.4698 49.8566L67.7981 50.959C67.8096 51.0076 67.7806 50.9756 67.8437 50.8791C67.8784 50.826 67.9444 50.7518 68.0526 50.6904C68.1667 50.6257 68.285 50.6 68.376 50.6V55.4ZM72.4702 49.8581C69.7724 38.3936 59.0576 33.1 48.6015 33.1V37.9C57.6993 37.9 65.7856 42.4064 67.7978 50.9576L72.4702 49.8581ZM25.8072 16.8875C25.5135 21.1334 22.5433 23.725 20.2515 23.725V28.525C25.8436 28.525 30.1874 23.1229 30.5957 17.2187L25.8072 16.8875ZM20.2515 23.725C17.9574 23.725 14.9842 21.1325 14.6959 16.8904L9.90699 17.2159C10.3087 23.1269 14.6616 28.525 20.2515 28.525V23.725ZM14.696 16.8905C14.4251 12.9019 16.9856 10.4 20.2515 10.4V5.6C14.0194 5.6 9.46081 10.6449 9.90698 17.2157L14.696 16.8905ZM20.2515 10.4C23.5018 10.4 26.0773 12.982 25.8072 16.8875L30.5957 17.2187C31.0426 10.7586 26.4991 5.6 20.2515 5.6V10.4ZM30.1352 33.6465C27.0173 32.1585 23.658 31.6234 20.2515 31.6234V36.4234C23.1659 36.4234 25.7706 36.8821 28.0677 37.9785L30.1352 33.6465ZM20.2515 31.6234C11.7508 31.6234 2.94526 36.0709 0.719859 45.3712L5.38807 46.4882C6.92767 40.0541 13.1521 36.4234 20.2515 36.4234V31.6234ZM0.719097 45.3744C0.22197 47.4646 1.44406 50.4 4.45947 50.4V45.6C4.6155 45.6 4.79161 45.642 4.95477 45.7344C5.11217 45.8235 5.21961 45.9375 5.28623 46.0392C5.41333 46.233 5.40956 46.3979 5.38884 46.485L0.719097 45.3744ZM4.45947 50.4H21.3015V45.6H4.45947V50.4Z" fill="#623EF1"/>
</svg>
