<svg width="36" height="36" viewBox="0 0 36 36" fill="none" xmlns="http://www.w3.org/2000/svg">
<path d="M17.3775 23.0404L18.2021 23.8665L19.8566 22.2196L19.0343 21.3911L17.3775 23.0404ZM13.5469 17.5354L12.7222 16.707L11.8961 17.5316L12.7185 18.36L13.5469 17.5354ZM19.0519 13.7048L19.878 12.8802L18.231 11.2257L17.4026 12.048L19.0519 13.7048ZM19.0343 21.3911L14.3753 16.7108L12.7185 18.36L17.3775 23.0404L19.0343 21.3911ZM14.3715 18.3638L19.0519 13.7048L17.4026 12.048L12.7222 16.707L14.3715 18.3638ZM17.5113 35.0628C22.1556 35.0734 26.6139 33.2387 29.9055 29.9622C33.197 26.6857 35.0521 22.2358 35.0628 17.5915L32.7279 17.5862C32.7187 21.6112 31.1109 25.4678 28.2583 28.3074C25.4056 31.147 21.5417 32.7371 17.5167 32.7279L17.5113 35.0628ZM0.0400724 17.5114C0.0294446 22.1557 1.86419 26.614 5.14069 29.9055C8.41719 33.197 12.867 35.0521 17.5113 35.0628L17.5167 32.7279C13.4916 32.7187 9.63509 31.1109 6.79545 28.2583C3.95582 25.4056 2.36571 21.5418 2.37492 17.5167L0.0400724 17.5114ZM17.5915 0.0400918C12.9472 0.0294639 8.48889 1.86421 5.19736 5.14071C1.90583 8.41721 0.0507003 12.8671 0.0400724 17.5114L2.37492 17.5167C2.37948 15.5237 2.77655 13.5511 3.54345 11.7116C4.31035 9.872 5.43208 8.20151 6.84457 6.79547C8.25706 5.38943 9.93266 4.27536 11.7757 3.51689C13.6188 2.75841 15.5931 2.37038 17.5861 2.37494L17.5915 0.0400918ZM17.5861 2.37494C19.5792 2.3795 21.5517 2.77656 23.3913 3.54347C25.2308 4.31037 26.9013 5.43209 28.3074 6.84459C29.7134 8.25708 30.8275 9.93268 31.586 11.7757C32.3444 13.6188 32.7325 15.5932 32.7279 17.5862L35.0628 17.5915C35.0734 12.9472 33.2386 8.48891 29.9621 5.19738C26.6856 1.90585 22.2358 0.0507197 17.5915 0.0400918L17.5861 2.37494Z" fill="#346DFF"/>
</svg>
